<mxfile host="app.diagrams.net" agent="Mozilla/5.0 (Windows NT 10.0; Win64; x64) AppleWebKit/537.36 (KHTML, like Gecko) Chrome/138.0.0.0 Safari/537.36 Edg/138.0.0.0" version="28.0.7">
  <diagram name="Page-1" id="aPRiSSTwlaxbYEbLmhu4">
    <mxGraphModel dx="1418" dy="832" grid="1" gridSize="10" guides="1" tooltips="1" connect="1" arrows="1" fold="1" page="1" pageScale="1" pageWidth="850" pageHeight="1100" math="0" shadow="0">
      <root>
        <mxCell id="0" />
        <mxCell id="1" parent="0" />
        <mxCell id="dMs1FkPfy6YzEfQXIENU-5" style="edgeStyle=orthogonalEdgeStyle;rounded=0;orthogonalLoop=1;jettySize=auto;html=1;entryX=0.5;entryY=0;entryDx=0;entryDy=0;" parent="1" source="dMs1FkPfy6YzEfQXIENU-1" target="dMs1FkPfy6YzEfQXIENU-4" edge="1">
          <mxGeometry relative="1" as="geometry" />
        </mxCell>
        <mxCell id="dMs1FkPfy6YzEfQXIENU-14" style="edgeStyle=orthogonalEdgeStyle;rounded=0;orthogonalLoop=1;jettySize=auto;html=1;entryX=0.5;entryY=0;entryDx=0;entryDy=0;" parent="1" source="dMs1FkPfy6YzEfQXIENU-1" target="dMs1FkPfy6YzEfQXIENU-13" edge="1">
          <mxGeometry relative="1" as="geometry" />
        </mxCell>
        <mxCell id="dMs1FkPfy6YzEfQXIENU-23" style="edgeStyle=orthogonalEdgeStyle;rounded=0;orthogonalLoop=1;jettySize=auto;html=1;entryX=0.5;entryY=0;entryDx=0;entryDy=0;" parent="1" source="dMs1FkPfy6YzEfQXIENU-1" target="dMs1FkPfy6YzEfQXIENU-22" edge="1">
          <mxGeometry relative="1" as="geometry" />
        </mxCell>
        <mxCell id="dMs1FkPfy6YzEfQXIENU-1" value="&lt;font style=&quot;font-size: 18px;&quot;&gt;Start&lt;/font&gt;" style="ellipse;whiteSpace=wrap;html=1;" parent="1" vertex="1">
          <mxGeometry x="357" y="20" width="120" height="80" as="geometry" />
        </mxCell>
        <mxCell id="dMs1FkPfy6YzEfQXIENU-7" style="edgeStyle=orthogonalEdgeStyle;rounded=0;orthogonalLoop=1;jettySize=auto;html=1;entryX=0.5;entryY=0;entryDx=0;entryDy=0;" parent="1" source="dMs1FkPfy6YzEfQXIENU-4" target="dMs1FkPfy6YzEfQXIENU-6" edge="1">
          <mxGeometry relative="1" as="geometry" />
        </mxCell>
        <mxCell id="dMs1FkPfy6YzEfQXIENU-4" value="&lt;font style=&quot;font-size: 18px;&quot;&gt;Input the novel story&lt;/font&gt;" style="shape=parallelogram;perimeter=parallelogramPerimeter;whiteSpace=wrap;html=1;fixedSize=1;" parent="1" vertex="1">
          <mxGeometry x="630" y="200" width="200" height="70" as="geometry" />
        </mxCell>
        <mxCell id="dMs1FkPfy6YzEfQXIENU-27" style="edgeStyle=orthogonalEdgeStyle;rounded=0;orthogonalLoop=1;jettySize=auto;html=1;entryX=1;entryY=0.5;entryDx=0;entryDy=0;" parent="1" source="dMs1FkPfy6YzEfQXIENU-6" target="dMs1FkPfy6YzEfQXIENU-8" edge="1">
          <mxGeometry relative="1" as="geometry">
            <Array as="points">
              <mxPoint x="730" y="670" />
            </Array>
          </mxGeometry>
        </mxCell>
        <mxCell id="dMs1FkPfy6YzEfQXIENU-6" value="&lt;font style=&quot;font-size: 18px;&quot;&gt;AI Create The Image&lt;/font&gt;" style="rounded=0;whiteSpace=wrap;html=1;" parent="1" vertex="1">
          <mxGeometry x="640" y="400" width="180" height="60" as="geometry" />
        </mxCell>
        <mxCell id="dMs1FkPfy6YzEfQXIENU-28" style="edgeStyle=orthogonalEdgeStyle;rounded=0;orthogonalLoop=1;jettySize=auto;html=1;exitX=0.5;exitY=1;exitDx=0;exitDy=0;" parent="1" source="dMs1FkPfy6YzEfQXIENU-15" target="dMs1FkPfy6YzEfQXIENU-8" edge="1">
          <mxGeometry relative="1" as="geometry">
            <Array as="points">
              <mxPoint x="135" y="670" />
            </Array>
          </mxGeometry>
        </mxCell>
        <mxCell id="dMs1FkPfy6YzEfQXIENU-8" value="&lt;font style=&quot;font-size: 18px;&quot;&gt;End&lt;/font&gt;" style="ellipse;whiteSpace=wrap;html=1;" parent="1" vertex="1">
          <mxGeometry x="330.75" y="630" width="172.5" height="80" as="geometry" />
        </mxCell>
        <mxCell id="dMs1FkPfy6YzEfQXIENU-10" value="&lt;font style=&quot;font-size: 18px;&quot;&gt;Novel Image&lt;/font&gt;" style="text;html=1;align=center;verticalAlign=middle;whiteSpace=wrap;rounded=0;" parent="1" vertex="1">
          <mxGeometry x="510" y="30" width="150" height="30" as="geometry" />
        </mxCell>
        <mxCell id="dMs1FkPfy6YzEfQXIENU-16" style="edgeStyle=orthogonalEdgeStyle;rounded=0;orthogonalLoop=1;jettySize=auto;html=1;entryX=0.5;entryY=0;entryDx=0;entryDy=0;" parent="1" source="dMs1FkPfy6YzEfQXIENU-13" target="dMs1FkPfy6YzEfQXIENU-15" edge="1">
          <mxGeometry relative="1" as="geometry" />
        </mxCell>
        <mxCell id="dMs1FkPfy6YzEfQXIENU-13" value="&lt;font style=&quot;font-size: 18px;&quot;&gt;Input what about&amp;nbsp;&lt;/font&gt;&lt;span style=&quot;font-size: 18px; background-color: transparent; color: light-dark(rgb(0, 0, 0), rgb(255, 255, 255));&quot;&gt;the&lt;/span&gt;&lt;div&gt;&lt;span style=&quot;font-size: 18px; background-color: transparent; color: light-dark(rgb(0, 0, 0), rgb(255, 255, 255));&quot;&gt;story you want to gen&lt;/span&gt;&lt;/div&gt;" style="shape=parallelogram;perimeter=parallelogramPerimeter;whiteSpace=wrap;html=1;fixedSize=1;" parent="1" vertex="1">
          <mxGeometry x="30" y="200" width="210" height="70" as="geometry" />
        </mxCell>
        <mxCell id="dMs1FkPfy6YzEfQXIENU-15" value="&lt;font style=&quot;font-size: 18px;&quot;&gt;Create The Story&lt;/font&gt;" style="rounded=0;whiteSpace=wrap;html=1;" parent="1" vertex="1">
          <mxGeometry x="45" y="410" width="180" height="60" as="geometry" />
        </mxCell>
        <mxCell id="dMs1FkPfy6YzEfQXIENU-21" value="&lt;font style=&quot;font-size: 18px;&quot;&gt;Story Gen&lt;/font&gt;" style="text;html=1;align=center;verticalAlign=middle;whiteSpace=wrap;rounded=0;" parent="1" vertex="1">
          <mxGeometry x="190" y="30" width="150" height="30" as="geometry" />
        </mxCell>
        <mxCell id="dMs1FkPfy6YzEfQXIENU-25" style="edgeStyle=orthogonalEdgeStyle;rounded=0;orthogonalLoop=1;jettySize=auto;html=1;entryX=0.5;entryY=0;entryDx=0;entryDy=0;" parent="1" source="dMs1FkPfy6YzEfQXIENU-22" target="dMs1FkPfy6YzEfQXIENU-24" edge="1">
          <mxGeometry relative="1" as="geometry" />
        </mxCell>
        <mxCell id="dMs1FkPfy6YzEfQXIENU-22" value="&lt;font style=&quot;font-size: 18px;&quot;&gt;Input put Story&lt;/font&gt;" style="shape=parallelogram;perimeter=parallelogramPerimeter;whiteSpace=wrap;html=1;fixedSize=1;" parent="1" vertex="1">
          <mxGeometry x="317" y="200" width="200" height="70" as="geometry" />
        </mxCell>
        <mxCell id="dMs1FkPfy6YzEfQXIENU-26" style="edgeStyle=orthogonalEdgeStyle;rounded=0;orthogonalLoop=1;jettySize=auto;html=1;entryX=0.5;entryY=0;entryDx=0;entryDy=0;" parent="1" source="dMs1FkPfy6YzEfQXIENU-24" target="dMs1FkPfy6YzEfQXIENU-8" edge="1">
          <mxGeometry relative="1" as="geometry" />
        </mxCell>
        <mxCell id="dMs1FkPfy6YzEfQXIENU-24" value="&lt;font style=&quot;font-size: 18px;&quot;&gt;AI Create The Image&lt;/font&gt;" style="rounded=0;whiteSpace=wrap;html=1;" parent="1" vertex="1">
          <mxGeometry x="327" y="400" width="180" height="60" as="geometry" />
        </mxCell>
      </root>
    </mxGraphModel>
  </diagram>
</mxfile>
